<?xml version="1.0" encoding="UTF-8"?>
<svg id="Layer_2" xmlns="http://www.w3.org/2000/svg" viewBox="0 0 123.79 80.5">
	<defs>
		<style>
			.cls-1 {
				fill: #3465a4;
			}

			.cls-2 {
				fill: #333;
			}
		</style>
	</defs>
	<g id="Layer_1-2" data-name="Layer_1">
		<path
			class="cls-1"
			d="M41.58,80.07L69.57.21c.05-.13.17-.21.31-.21h12.02c.18,0,.32.14.32.32,0,.04,0,.07-.02.11l-27.85,79.86c-.05.13-.17.21-.3.21h-12.17c-.18,0-.32-.14-.32-.32,0-.04,0-.07.02-.11Z"
		/>
		<path
			class="cls-2"
			d="M13.73,40.86l25.38,9.79c.15.06.23.22.18.37l-3.11,9.5c-.05.16-.22.24-.38.19,0,0-.01,0-.02,0L.18,45.84c-.11-.05-.18-.16-.18-.28v-9.95c0-.12.07-.23.18-.28l35.61-14.87c.15-.06.33,0,.39.16,0,0,0,.01,0,.02l3.11,9.51c.05.15-.03.31-.18.37l-25.39,9.78c-.15.06-.23.23-.17.39.03.08.09.14.17.17Z"
		/>
		<path
			class="cls-2"
			d="M84.47,30.13l3.09-9.47c.05-.17.23-.26.4-.21.01,0,.02,0,.03.01l35.6,14.88c.12.05.2.16.2.29v9.92c-.01.13-.09.24-.21.29l-35.6,14.87c-.16.07-.35,0-.42-.17,0,0,0-.02-.01-.03l-3.08-9.47c-.05-.16.03-.34.19-.4l25.33-9.76c.17-.06.25-.25.19-.41-.03-.09-.1-.16-.19-.19l-25.33-9.75c-.16-.06-.24-.24-.19-.4Z"
		/>
	</g>
</svg>
