<svg aria-hidden="true" role="img" width="32" height="32" viewBox="0 0 16 16" fill="none" xmlns="http://www.w3.org/2000/svg"><path d="M13 6V4h-1V1h-1v1h-1v1H9v1H8v1H3v1H2v2H1v4h1v1h1v1h1v1h8v-1h1v-1h1V6h-1Z" fill="#fd6214"></path><path d="M0 8v4h1V8H0ZM15 9v3h1V9h-1ZM14 6v3h1V6h-1ZM13 4v2h1V4h-1Z" fill="#000"></path><path d="M14 9v3h1V9h-1ZM13 6v3h1V6h-1ZM12 4v2h1V4h-1Z" fill="#ba3500"></path><path d="M1 6v2h1V6H1ZM7 3H6v1h1V3ZM9 3H8v1h1V3ZM8 4H7v1h1V4ZM2 5v1h1V5H2ZM1 12v1h1v-1H1ZM2 13v1h1v-1H2ZM3 14v1h1v-1H3ZM14 12v1h1v-1h-1ZM13 13v1h1v-1h-1ZM12 14v1h1v-1h-1ZM4 15v1h8v-1H4ZM3 4v1h1V4H3ZM4 3v1h1V3H4ZM5 2v1h1V2H5ZM9 2v1h1V2H9ZM10 1v1h1V1h-1ZM11 0v1h1V0h-1Z" fill="#000"></path><path d="M11 1v1h1V1h-1ZM10 2v1h1V2h-1ZM9 3v1h1V3H9ZM8 4v1h1V4H8ZM5 3v1h1V3H5ZM4 4v1h1V4H4ZM6 4v1h1V4H6Z" fill="#f0f0f0"></path><path d="M5 4v1h1V4H5Z" fill="#fd6214"></path><path opacity=".5" d="M11 4v1h1V4h-1ZM12 9V8h-1V6h-1v1H9v1H6V7H5v2H3v2h1v2h1v1h6v-1h1v-2h1V9h-1Z" fill="#fff"></path><path d="M3 5v1h1V5H3ZM2 6v2h1V6H2ZM4 8v1h1V8H4Z" fill="#f0f0f0"></path><path d="M2 12v1h1v-1H2ZM3 13v1h1v-1H3ZM12 13v1h1v-1h-1ZM13 12v1h1v-1h-1ZM4 14v1h8v-1H4Z" fill="#ba3500"></path><path d="M1 8v2h1V8H1ZM11 10h-1V9H6v1H5v2h1v1h4v-1h1v-2Z" fill="#f0f0f0"></path><path d="M12 1v3h1V1h-1Z" fill="#000"></path></svg>