<svg aria-hidden="true" role="img" width="32" height="32" viewBox="0 0 16 16" fill="none" xmlns="http://www.w3.org/2000/svg"><path d="M15 2V1H9v1H3v5H1v5h12V7h2V2Z" fill="#bcef42"></path><path d="M11 13v-1H5v1h6Z" fill="#7fb134"></path><path d="M15 2V1H9v1h6ZM9 3V2H5v1h4Z" fill="#fff"></path><path d="M3 11v1h2v-1H3ZM13 10h-1v2h1v-2ZM15 5h-1v2h1V5ZM14 7h-1v3h1V7Z" fill="#7fb134"></path><path d="M16 1h-1v6h1V1Z" fill="#000"></path><path d="M3 9H2v6h1V9Z" fill="#4a8359"></path><path d="M15 0H9v1h6V0ZM11 13H5v1h6v-1ZM9 1H5v1h4V1ZM5 2H3v1h2V2ZM3 3H2v2h1V3ZM1 7H0v5h1v3h1v-3H1V7h1V5H1v2ZM13 12h-2v1h2v-1ZM14 10h-1v2h1v-2h1V7h-1v3ZM4 13h1v-1H3v3h1v-2ZM3 15H2v1h1v-1Z" fill="#000"></path><path d="M2 7h1V5H2v2ZM1 9h1V7H1v2ZM5 3H3v2h1V4h1V3Z" fill="#fff"></path><path d="M4 8h2V7H4v1ZM6 7h2V6H6v1ZM8 6h2V5H8v1ZM10 5h1V4h-1v1ZM11 4h1V3h-1v1Z" fill="#4a8359"></path><path d="M5 4v1h1V4H5Z" fill="#fff"></path><path d="M3 8v1h1V8H3Z" fill="#4a8359"></path></svg>