<svg aria-hidden="true" role="img" width="32" height="32" viewBox="0 0 16 16" fill="none" xmlns="http://www.w3.org/2000/svg"><path d="M14 5V3h-1V2h-1V1h-2v1h1v1h1v4h-1v1h-1v1H6V8H5V7H4V3h1V2h1V1H4v1H3v1H2v2H1v6h1v2h1v1h2v1h6v-1h2v-1h1v-2h1V5h-1Z" fill="#b79cf8"></path><path d="M6 0H4v1h2V0ZM2 3H1v2h1V3ZM5 3H4v4h1V3ZM10 8H6v1h4V8Z" fill="#000"></path><path d="M10 9H6v1h4V9Z" fill="#f0f0f0"></path><path d="M1 5H0v6h1V5ZM11 15H5v1h6v-1Z" fill="#000"></path><path d="M2 10H1v1h1v-1ZM13 12h-2v1H5v-1H3v-1H2v2h1v1h2v1h6v-1h2v-1h1v-2h-1v1ZM15 10h-1v1h1v-1Z" fill="#816bee"></path><path d="M4 1H3v1h1V1ZM3 2H2v1h1V2Z" fill="#000"></path><path d="M6 1H4v1h2V1ZM4 2H3v1h1V2ZM3 3H2v1h1V3ZM2 5H1v1h1V5ZM3 6H2v1h1V6ZM5 7H4v1h1V7ZM6 8H5v1h1V8ZM12 7h-1v1h1V7ZM11 1h-1v1h1V1ZM11 8h-1v1h1V8Z" fill="#f0f0f0"></path><path d="M7 1H6v1h1V1ZM6 2H5v1h1V2ZM6 7H5v1h1V7ZM2 11H1v2h1v-2ZM3 13H2v1h1v-1ZM12 0h-2v1h2V0ZM13 14h-2v1h2v-1ZM5 14H3v1h2v-1ZM15 3h-1v2h1V3ZM12 3h-1v4h1V3ZM16 5h-1v6h1V5ZM13 1h-1v1h1V1ZM14 2h-1v1h1V2ZM10 1H9v1h1V1ZM11 2h-1v1h1V2ZM11 7h-1v1h1V7ZM15 11h-1v2h1v-2ZM14 13h-1v1h1v-1Z" fill="#000"></path><path d="M5 2H4v1h1V2Z" fill="#b79cf8"></path></svg>