<svg aria-hidden="true" role="img" width="32" height="32" viewBox="0 0 16 16" fill="none" xmlns="http://www.w3.org/2000/svg"><path d="M13 3V2h-2v1h-1V2H9V1H7v1H6v1H5V2H3v1H2v4h2v1h1V7h6v1h1V7h2V3h-1Z" fill="#d1cdd5"></path><path d="M14 9V8h-4V7H6v1H2v1H1v3h1v1h4v1h1v1h2v-1h1v-1h4v-1h1V9h-1Z" fill="#57595f"></path><path d="M9 0H7v1h2V0ZM7 1H6v1h1V1ZM10 1H9v1h1V1ZM13 1h-2v1h2V1ZM14 2h-1v1h1V2ZM11 2h-1v1h1V2ZM6 2H5v1h1V2ZM5 1H3v1h2V1ZM2 3H1v4h1V3ZM3 2H2v1h1V2ZM2 8H1v1h1V8ZM1 9H0v3h1V9ZM2 12H1v1h1v-1ZM6 13H2v1h4v-1ZM7 14H6v1h1v-1ZM9 15H7v1h2v-1ZM10 14H9v1h1v-1ZM14 13h-4v1h4v-1ZM15 12h-1v1h1v-1ZM16 9h-1v3h1V9ZM15 8h-1v1h1V8ZM15 3h-1v4h1V3ZM5 8H4v1h1V8ZM6 7H5v1h1V7ZM10 6H6v1h4V6ZM11 7h-1v1h1V7ZM12 8h-1v1h1V8ZM13 7h-1v1h2V7h-1ZM3 7H2v1h2V7H3Z" fill="#000"></path><path d="M2 11H1v1h1v-1ZM3 12H2v1h1v-1ZM7 13H6v1h1v-1ZM10 13H9v1h1v-1ZM9 14H7v1h2v-1ZM14 12h-1v1h1v-1ZM15 9h-1v3h1V9Z" fill="#35363a"></path><path d="M3 6H2v1h1V6ZM5 7H4v1h1V7ZM12 7h-1v1h1V7ZM6 6H5v1h1V6ZM11 6h-1v1h1V6Z" fill="#847d8b"></path><path d="M12 7h-1v1h1V7ZM10 5H6v1h4V5ZM14 4h-1v3h1V4Z" fill="#847d8b"></path><path d="M4 4H3v1h1V4ZM3 3H2v1h1V3ZM5 2H3v1h2V2ZM7 2H6v1h1V2ZM9 1H7v1h2V1ZM10 2H9v1h1V2ZM13 2h-2v1h2V2ZM14 3h-1v1h1V3Z" fill="#f0f0f0"></path><path d="M2 9H1v1h1V9ZM3 8H2v1h1V8ZM6 8H5v1h1V8ZM10 7H6v1h4V7ZM12 9h-1v1h1V9ZM14 8h-2v1h2V8Z" fill="#d8d8d8"></path></svg>