<svg aria-hidden="true" role="img" width="32" height="32" viewBox="0 0 16 16" fill="none" xmlns="http://www.w3.org/2000/svg"><path d="M14 4V3h-1V2h-1V1H6v1H4v1H3v1H2v2H1v5h1v1h1v1h1v1h1v1h5v-1h2v-1h1v-1h1v-2h1V4h-1Z" fill="#bcef42"></path><path d="M15 1h-2v1h2V1Z" fill="#f0f0f0"></path><path d="M3 13H1v1h2v-1Z" fill="#bcef42"></path><path d="M4 14H1v1h3v-1Z" fill="#7fb134"></path><path d="M15 8h-1v2h1V8Z" fill="#816bee"></path><path d="M12 1H6v1h6V1Z" fill="#f0f0f0"></path><path d="M12 2H6v1h6V2Z" fill="#b79cf8"></path><path d="M10 14H5v1h5v-1Z" fill="#816bee"></path><path d="M15 2h-1v1h1V2Z" fill="#bcef42"></path><path d="M6 5H5v1h1V5ZM3 4H2v1h1V4ZM4 3H3v1h1V3Z" fill="#f0f0f0"></path><path d="M6 3H5v1h1V3ZM13 3h-1v1h1V3Z" fill="#b79cf8"></path><path d="M5 2H4v1h1V2ZM7 6H6v1h1V6ZM2 12H1v1h1v-1Z" fill="#f0f0f0"></path><path d="M14 11h-1v1h1v-1ZM13 12h-1v1h1v-1ZM12 13h-1v1h1v-1Z" fill="#816bee"></path><path d="M15 1v2h-1V2h-1v1h1v1h1v6h1V1h-1ZM3 3H2v1h1V3ZM4 2h2V1H4v1H3v1h1V2ZM15 10h-1v2h1v-2ZM2 4H1v2h1V4ZM12 14h-2v1h2v-1ZM14 12h-1v1h1v-1ZM3 12H2v1h1v-1ZM4 13H3v1h1v-1ZM2 11H1v1h1v-1ZM13 13h-1v1h1v-1ZM1 6H0v9h1V6Z" fill="#000"></path><path d="M12 2h1V1h2V0H6v1h6v1ZM5 15v-1H4v1H1v1h9v-1H5Z" fill="#000"></path><path d="M2 6H1v2h1V6Z" fill="#f0f0f0"></path><path d="M10 6H8v1h2V6ZM9 10H7v1h2v-1ZM11 7h-1v2h1V7ZM3 11h2v-1H4V5H3v6ZM11 4H7v1h4V4ZM10 12H6v1h4v-1ZM15 5h-1v3h1V5ZM2 8H1v3h1V8ZM5 4H4v1h1V4ZM8 7H7v1h1V7ZM7 9H6v1h1V9ZM6 11H5v1h1v-1ZM10 9H9v1h1V9ZM11 11h-1v1h1v-1ZM12 10h-1v1h1v-1ZM7 6V5H6v1H5v3h1V6h1ZM14 4h-1v1h1V4ZM12 5h-1v1h1V5ZM13 6h-1v4h1V6ZM3 11H2v1h1v-1ZM4 12H3v1h1v-1ZM5 13H4v1h1v-1Z" fill="#b79cf8"></path></svg>