<svg aria-hidden="true" role="img" width="32" height="32" viewBox="0 0 16 16" fill="none" xmlns="http://www.w3.org/2000/svg"><path d="M7 0H4v1h3V0ZM11 1H7v1h4V1ZM9 6H8v4h1V6ZM1 5H0v6h1V5ZM15 2h-4v1h4V2Z" fill="#000"></path><path d="M7 1H4v1h3V1ZM11 2H7v1h4V2Z" fill="#f0f0f0"></path><path d="M15 3h-4v1h4V3Z" fill="#f0f0f0"></path><path d="M7 15H4v1h3v-1Z" fill="#000"></path><path d="M6 14v-1H5v-2H4V5h1V3h1V2H4v1H2v4H1v4h1v2h1v1h1v1h3v-1H6Z" fill="#ffe361"></path><path d="M7 14H4v1h3v-1Z" fill="#ffb84b"></path><path d="M11 14H7v1h4v-1Z" fill="#000"></path><path d="M10 13v-1H9v-2H8V6h1V4h1V3H7v1H6v3H5v4h1v2h1v1h4v-1h-1Z" fill="#ffe361"></path><path d="M15 13h-4v1h4v-1ZM4 1H3v1h1V1ZM3 2H2v1h1V2ZM2 3H1v2h1V3ZM16 3h-1v1h1V3ZM15 4h-1v1h1V4ZM14 5h-1v2h1V5ZM16 12h-1v1h1v-1ZM15 11h-1v1h1v-1ZM14 9h-1v2h1V9ZM13 7h-1v2h1V7ZM4 14H3v1h1v-1ZM3 13H2v1h1v-1ZM2 11H1v2h1v-2ZM5 5H4v6h1V5ZM7 2H6v1h1V2ZM6 3H5v2h1V3Z" fill="#000"></path><path d="M2 5H1v2h1V5ZM6 5H5v2h1V5Z" fill="#f0f0f0"></path><path d="M5 3H4v2h1V3Z" fill="#ffb84b"></path><path d="M11 3h-1v1h1V3Z" fill="#000"></path><path d="M4 2H3v1h1V2Z" fill="#f0f0f0"></path><path d="M6 2H5v1h1V2ZM9 4H8v2h1V4ZM10 3H9v1h1V3ZM5 11H4v1h1v-1ZM4 13H3v1h1v-1ZM3 11H2v2h1v-2ZM8 13v-1H7v-1H6v2h1v1h4v-1H8ZM9 10H8v1h1v-1Z" fill="#ffb84b"></path><path d="M10 13v-1H9v-2H8V6h1V4h1V3H7v1H6v3H5v4h1v2h1v1h4v-1h-1Z" fill="url(#badge-force-gradient-aaab0836-4133-4ac1-b74c-9e94f87aac26)"></path><path d="M14 12v-1h-1V9h-1V7h1V5h1V4h-3v1h-1v1H9v4h1v2h1v1h4v-1h-1Z" fill="#ff2c52"></path><path d="M13 5h-1v2h1V5ZM14 4h-1v1h1V4ZM13 9h-1v1h1V9ZM12 12v-1h-2v1h1v1h4v-1h-3Z" fill="#be0351"></path><path d="M3 3H2v1h1V3ZM3 7H2v1h1V7ZM7 3H6v1h1V3Z" fill="#f0f0f0"></path><path d="M11 4h-1v1h1V4ZM10 6H9v1h1V6Z" fill="#f0f0f0"></path><path d="M10 4H9v2h1V4ZM7 13H6v1h1v-1ZM6 11H5v2h1v-2ZM11 12h-1v1h1v-1ZM10 10H9v2h1v-2Z" fill="#000"></path><defs><radialGradient id="badge-force-gradient-aaab0836-4133-4ac1-b74c-9e94f87aac26" cx="0.75" cy="0.5" r="1" fx="0.75" fy="0.5"><stop stop-color="#ff2c52" offset="30%"></stop><stop stop-color="#ffe361" offset="70%"></stop></radialGradient></defs></svg>